<!--?xml version="1.0" standalone="no"?-->
              <svg id="sw-js-blob-svg" viewBox="0 0 100 100" xmlns="http://www.w3.org/2000/svg" version="1.1">
                    <defs> 
                        <linearGradient id="sw-gradient" x1="0" x2="1" y1="1" y2="0">
                            <stop id="stop1" stop-color="rgba(123, 211, 137, 1)" offset="0%"></stop>
                            <stop id="stop2" stop-color="rgba(114.115, 206.12, 198.329, 1)" offset="100%"></stop>
                        </linearGradient>
                    </defs>
                <path fill="url(#sw-gradient)" d="M23.8,-26.1C31.6,-21.7,39.2,-15,40.2,-7.4C41.2,0.2,35.5,8.7,29.5,15.2C23.6,21.7,17.4,26.2,10.4,28.9C3.4,31.6,-4.4,32.6,-13.5,31.6C-22.6,30.7,-32.9,27.8,-37,21.2C-41.1,14.5,-38.9,4,-36,-5.3C-33.1,-14.7,-29.6,-22.9,-23.5,-27.5C-17.4,-32.2,-8.7,-33.4,-0.4,-32.9C8,-32.5,15.9,-30.5,23.8,-26.1Z" width="100%" height="100%" transform="translate(50 50)" stroke-width="0" style="transition: all 0.3s ease 0s;"></path>
              </svg>