<!--?xml version="1.0" standalone="no"?-->
              <svg id="sw-js-blob-svg" viewBox="0 0 100 100" xmlns="http://www.w3.org/2000/svg" version="1.1">
                    <defs> 
                        <linearGradient id="sw-gradient" x1="0" x2="1" y1="1" y2="0">
                            <stop id="stop1" stop-color="rgba(248, 117, 55, 1)" offset="0%"></stop>
                            <stop id="stop2" stop-color="rgba(251, 168, 31, 1)" offset="100%"></stop>
                        </linearGradient>
                    </defs>
                <path fill="url(#sw-gradient)" d="M22.8,-25.8C29.8,-21.4,35.7,-14.4,38.6,-5.7C41.5,3,41.2,13.3,36.3,20.3C31.5,27.2,22,30.7,12.7,33.5C3.5,36.2,-5.6,38.2,-13.1,35.6C-20.6,33.1,-26.7,26,-29.6,18.3C-32.5,10.7,-32.2,2.5,-31.6,-6.3C-30.9,-15.2,-29.9,-24.8,-24.6,-29.6C-19.2,-34.3,-9.6,-34.2,-0.8,-33.2C7.9,-32.2,15.9,-30.3,22.8,-25.8Z" width="100%" height="100%" transform="translate(50 50)" stroke-width="0" style="transition: all 0.3s ease 0s;" stroke="url(#sw-gradient)"></path>
              </svg>